<?xml version="1.0" encoding="UTF-8" standalone="no"?>
<!-- Created with Inkscape (http://www.inkscape.org/) -->

<svg
   width="2006.2009mm"
   height="147.14882mm"
   viewBox="0 0 2006.201 147.14882"
   version="1.1"
   id="svg1"
   sodipodi:docname="borderSpace.svg"
   xml:space="preserve"
   inkscape:version="1.3.2 (091e20e, 2023-11-25, custom)"
   xmlns:inkscape="http://www.inkscape.org/namespaces/inkscape"
   xmlns:sodipodi="http://sodipodi.sourceforge.net/DTD/sodipodi-0.dtd"
   xmlns:xlink="http://www.w3.org/1999/xlink"
   xmlns="http://www.w3.org/2000/svg"
   xmlns:svg="http://www.w3.org/2000/svg"><sodipodi:namedview
     id="namedview1"
     pagecolor="#ffffff"
     bordercolor="#000000"
     borderopacity="0.25"
     inkscape:showpageshadow="2"
     inkscape:pageopacity="0.0"
     inkscape:pagecheckerboard="0"
     inkscape:deskcolor="#d1d1d1"
     inkscape:document-units="mm"
     inkscape:export-bgcolor="#ffffff00"
     inkscape:zoom="0.044878725"
     inkscape:cx="-4222.4907"
     inkscape:cy="601.62137"
     inkscape:window-width="1364"
     inkscape:window-height="482"
     inkscape:window-x="26"
     inkscape:window-y="269"
     inkscape:window-maximized="0"
     inkscape:current-layer="layer1" /><defs
     id="defs1"><linearGradient
       id="linearGradient2"
       inkscape:collect="always"><stop
         style="stop-color:#0060d0;stop-opacity:0;"
         offset="0"
         id="stop2" /><stop
         style="stop-color:#0060d0;stop-opacity:1;"
         offset="0.59016395"
         id="stop3" /></linearGradient><linearGradient
       inkscape:collect="always"
       xlink:href="#linearGradient2"
       id="linearGradient4"
       gradientUnits="userSpaceOnUse"
       gradientTransform="matrix(2.7978434,0,0,1.4834281,-1721.9808,321.32016)"
       x1="55.083054"
       y1="113.30601"
       x2="197.37486"
       y2="112.80679" /><linearGradient
       inkscape:collect="always"
       xlink:href="#linearGradient2"
       id="linearGradient1"
       gradientUnits="userSpaceOnUse"
       gradientTransform="matrix(2.7978434,0,0,-1.4834281,-1716.9206,193.1965)"
       x1="55.083054"
       y1="113.30601"
       x2="197.37486"
       y2="112.80679" /><linearGradient
       inkscape:collect="always"
       xlink:href="#linearGradient2"
       id="linearGradient3"
       gradientUnits="userSpaceOnUse"
       gradientTransform="matrix(-2.7978434,0,0,1.4834281,307.16277,318.62079)"
       x1="55.083054"
       y1="113.30601"
       x2="197.37486"
       y2="112.80679" /><linearGradient
       inkscape:collect="always"
       xlink:href="#linearGradient2"
       id="linearGradient5"
       gradientUnits="userSpaceOnUse"
       gradientTransform="matrix(-2.7978434,0,0,-1.4834281,298.76615,193.62198)"
       x1="55.083054"
       y1="113.30601"
       x2="197.37486"
       y2="112.80679" /></defs><g
     inkscape:label="Layer 1"
     inkscape:groupmode="layer"
     id="layer1"
     transform="translate(1712.0035,-183.74304)"><path
       id="rect2-7"
       style="fill:#0bf0ff;fill-opacity:1;stroke:#ffffff;stroke-width:0;stroke-linejoin:round;stroke-dasharray:none;stroke-opacity:1"
       d="m -324.08797,286.75593 h 602.66249 c 8.64715,0 15.60854,1.74541 15.60854,3.91352 v 36.30888 c 0,2.16808 -6.96139,3.91353 -15.60854,3.91353 h -474.32573 c -46.93198,0 -55.9049,-14.54399 -77.1755,-23.91603 -11.43559,-5.03864 -10.7707,-6.92698 -35.33093,-10.90307 0,0 -17.87547,-0.60875 -32.17925,-0.55166 0,0 0.26443,-6.48535 -0.3481,-8.7683 0,0 0.085,0.003 16.69702,0.003 z"
       sodipodi:nodetypes="sssssssssss"
       inkscape:export-filename="nav-decor.png"
       inkscape:export-xdpi="96"
       inkscape:export-ydpi="96" /><path
       id="rect2-7-7"
       style="fill:#0bf0ff;fill-opacity:1;stroke:#ffffff;stroke-width:0;stroke-linejoin:round;stroke-dasharray:none;stroke-opacity:1"
       d="m -1093.3933,285.90408 h -602.6625 c -8.6471,0 -15.6085,1.74541 -15.6085,3.91352 v 36.30888 c 0,2.16808 6.9614,3.91353 15.6085,3.91353 h 474.3258 c 46.9319,0 55.9049,-14.54399 77.1755,-23.91603 11.4356,-5.03864 10.7707,-6.92698 35.3309,-10.90307 0,0 17.8755,-0.60875 32.1792,-0.55166 0,0 -0.2644,-6.48535 0.3482,-8.7683 0,0 -0.085,0.003 -16.6971,0.003 z"
       sodipodi:nodetypes="sssssssssss"
       inkscape:export-filename="nav-decor.svg"
       inkscape:export-xdpi="96"
       inkscape:export-ydpi="96" /><rect
       style="fill:#010c2a;stroke:#ffffff;stroke-width:0;stroke-linejoin:round"
       id="rect1"
       width="2006.111"
       height="28.920336"
       x="-1711.9667"
       y="256.57056"
       ry="0" /><rect
       style="fill:#0bf0ff;fill-opacity:1;stroke:#ffffff;stroke-width:0;stroke-linejoin:round"
       id="rect1-5"
       width="989.47186"
       height="15.486856"
       x="-1195.4231"
       y="283.28143"
       ry="1.8148801" /><path
       id="rect2"
       style="fill:#010c2a;fill-opacity:1;stroke:#ffffff;stroke-width:0;stroke-linejoin:round;stroke-dasharray:none;stroke-opacity:1"
       d="m -271.91488,279.2124 h 551.82054 c 7.91766,0 14.29179,1.67079 14.29179,3.74615 v 34.75605 c 0,2.07537 -6.37413,3.74616 -14.29179,3.74616 h -434.31055 c -42.9727,0 -60.52097,-16.26492 -70.6648,-22.8932 -8.03828,-5.25246 -13.97546,-11.56141 -62.72493,-18.93892 -5.83461,-0.88298 7.9621,-0.41624 15.87974,-0.41624 z"
       sodipodi:nodetypes="sssssssss"
       inkscape:export-filename="nav.svg"
       inkscape:export-xdpi="96"
       inkscape:export-ydpi="96" /><path
       id="rect2-0"
       style="fill:#010c2a;fill-opacity:1;stroke:#ffffff;stroke-width:0;stroke-linejoin:round;stroke-dasharray:none;stroke-opacity:1"
       d="m -1145.5664,278.17363 h -551.8205 c -7.9177,0 -14.2918,1.67078 -14.2918,3.74614 v 34.75605 c 0,2.07538 6.3741,3.74616 14.2918,3.74616 h 434.3105 c 42.9727,0 60.521,-16.26491 70.6649,-22.89319 8.0382,-5.25246 13.9754,-11.56141 62.7249,-18.93892 5.8346,-0.88299 -7.9621,-0.41624 -15.8798,-0.41624 z"
       sodipodi:nodetypes="sssssssss"
       inkscape:export-filename="nav.svg"
       inkscape:export-xdpi="96"
       inkscape:export-ydpi="96" /><path
       id="rect2-7-4"
       style="fill:#0bf0ff;fill-opacity:1;stroke:#ffffff;stroke-width:0;stroke-linejoin:round;stroke-dasharray:none;stroke-opacity:1"
       d="m -1093.718,227.87896 h -602.6625 c -8.6472,0 -15.6086,-1.74541 -15.6086,-3.91351 v -36.30887 c 0,-2.16809 6.9614,-3.91354 15.6086,-3.91354 h 474.3257 c 46.932,0 55.9049,14.54399 77.1755,23.91603 11.4356,5.03865 10.7707,6.92698 35.3309,10.90306 0,0 17.8755,0.60875 32.1793,0.55166 0,0 -0.2644,6.48536 0.3481,8.76831 0,0 -0.085,-0.003 -16.697,-0.003 z"
       sodipodi:nodetypes="sssssssssss"
       inkscape:export-filename="nav-decor.svg"
       inkscape:export-xdpi="96"
       inkscape:export-ydpi="96" /><path
       id="rect2-7-7-7"
       style="fill:#0bf0ff;fill-opacity:1;stroke:#ffffff;stroke-width:0;stroke-linejoin:round;stroke-dasharray:none;stroke-opacity:1"
       d="m -324.41271,228.73081 h 602.6625 c 8.6471,0 15.6085,-1.74541 15.6085,-3.91351 v -36.30887 c 0,-2.16809 -6.9614,-3.91354 -15.6085,-3.91354 h -474.3258 c -46.9319,0 -55.9049,14.54399 -77.1755,23.91603 -11.4356,5.03864 -10.7707,6.92698 -35.3309,10.90306 0,0 -17.8755,0.60875 -32.1792,0.55166 0,0 0.2644,6.48536 -0.3482,8.76831 0,0 0.085,-0.003 16.6971,-0.003 z"
       sodipodi:nodetypes="sssssssssss"
       inkscape:export-filename="nav-decor.svg"
       inkscape:export-xdpi="96"
       inkscape:export-ydpi="96" /><rect
       style="fill:#010c2a;stroke:#ffffff;stroke-width:0;stroke-linejoin:round"
       id="rect1-2"
       width="2006.111"
       height="28.920336"
       x="-294.16064"
       y="-258.06433"
       ry="0"
       transform="scale(-1)" /><rect
       style="fill:#0bf0ff;fill-opacity:1;stroke:#ffffff;stroke-width:0;stroke-linejoin:round"
       id="rect1-5-6"
       width="989.47186"
       height="15.486856"
       x="222.38297"
       y="-231.35344"
       ry="1.8148801"
       transform="scale(-1)" /><path
       id="rect2-8"
       style="fill:#010c2a;fill-opacity:1;stroke:#ffffff;stroke-width:0;stroke-linejoin:round;stroke-dasharray:none;stroke-opacity:1"
       d="m -1145.8911,235.42249 h -551.8206 c -7.9176,0 -14.2918,-1.67078 -14.2918,-3.74615 v -34.75603 c 0,-2.07538 6.3742,-3.74617 14.2918,-3.74617 h 434.3106 c 42.9727,0 60.521,16.26492 70.6648,22.8932 8.0383,5.25245 13.9755,11.5614 62.7249,18.93892 5.8346,0.88298 -7.9621,0.41623 -15.8797,0.41623 z"
       sodipodi:nodetypes="sssssssss"
       inkscape:export-filename="nav.svg"
       inkscape:export-xdpi="96"
       inkscape:export-ydpi="96" /><path
       id="rect2-0-1"
       style="fill:#010c2a;fill-opacity:1;stroke:#ffffff;stroke-width:0;stroke-linejoin:round;stroke-dasharray:none;stroke-opacity:1"
       d="m -272.23961,236.46127 h 551.8205 c 7.9177,0 14.2918,-1.67078 14.2918,-3.74615 v -34.75604 c 0,-2.07537 -6.3741,-3.74616 -14.2918,-3.74616 h -434.3105 c -42.9727,0 -60.521,16.26491 -70.6649,22.89319 -8.0382,5.25246 -13.9754,11.56141 -62.7249,18.93892 -5.8346,0.88299 7.9621,0.41624 15.8798,0.41624 z"
       sodipodi:nodetypes="sssssssss"
       inkscape:export-filename="nav.svg"
       inkscape:export-xdpi="96"
       inkscape:export-ydpi="96" /><path
       id="rect1-1"
       style="fill:url(#linearGradient4);stroke:#ffffff;stroke-width:0;stroke-linejoin:round"
       d="m -1700.7938,281.84306 h 493.142 l -48.5157,28.15391 h -444.6263 z"
       sodipodi:nodetypes="ccccc"
       inkscape:export-filename="gradLine.svg"
       inkscape:export-xdpi="96"
       inkscape:export-ydpi="96" /><path
       id="rect1-1-7"
       style="fill:url(#linearGradient1);stroke:#ffffff;stroke-width:0;stroke-linejoin:round"
       d="m -1695.7336,232.6736 h 493.142 l -48.5157,-28.1539 h -444.6263 z"
       sodipodi:nodetypes="ccccc"
       inkscape:export-filename="gradLine.svg"
       inkscape:export-xdpi="96"
       inkscape:export-ydpi="96" /><path
       id="rect1-1-5"
       style="fill:url(#linearGradient3);stroke:#ffffff;stroke-width:0;stroke-linejoin:round"
       d="m 285.97577,279.1437 h -493.142 l 48.5157,28.1539 h 444.6263 z"
       sodipodi:nodetypes="ccccc"
       inkscape:export-filename="gradLine.svg"
       inkscape:export-xdpi="96"
       inkscape:export-ydpi="96" /><path
       id="rect1-1-79"
       style="fill:url(#linearGradient5);stroke:#ffffff;stroke-width:0;stroke-linejoin:round"
       d="m 277.57915,233.09908 h -493.142 l 48.5157,-28.1539 h 444.6263 z"
       sodipodi:nodetypes="ccccc"
       inkscape:export-filename="gradLine.svg"
       inkscape:export-xdpi="96"
       inkscape:export-ydpi="96" /></g></svg>
