<?xml version="1.0" encoding="UTF-8" standalone="no"?>
<!-- Created with Inkscape (http://www.inkscape.org/) -->

<svg
   width="700.68378mm"
   height="94.690605mm"
   viewBox="0 0 700.6838 94.690612"
   version="1.1"
   id="svg1"
   sodipodi:docname="navPhoneBorder.svg"
   xml:space="preserve"
   inkscape:version="1.3.2 (091e20e, 2023-11-25, custom)"
   xmlns:inkscape="http://www.inkscape.org/namespaces/inkscape"
   xmlns:sodipodi="http://sodipodi.sourceforge.net/DTD/sodipodi-0.dtd"
   xmlns:xlink="http://www.w3.org/1999/xlink"
   xmlns="http://www.w3.org/2000/svg"
   xmlns:svg="http://www.w3.org/2000/svg"><sodipodi:namedview
     id="namedview1"
     pagecolor="#ffffff"
     bordercolor="#000000"
     borderopacity="0.25"
     inkscape:showpageshadow="2"
     inkscape:pageopacity="0.0"
     inkscape:pagecheckerboard="0"
     inkscape:deskcolor="#d1d1d1"
     inkscape:document-units="mm"
     inkscape:export-bgcolor="#ffffff00"
     inkscape:zoom="0.25387241"
     inkscape:cx="362.38676"
     inkscape:cy="831.12616"
     inkscape:window-width="1739"
     inkscape:window-height="912"
     inkscape:window-x="26"
     inkscape:window-y="269"
     inkscape:window-maximized="0"
     inkscape:current-layer="layer1" /><defs
     id="defs1"><linearGradient
       id="linearGradient1"
       inkscape:collect="always"><stop
         style="stop-color:#0060d0;stop-opacity:1;"
         offset="0.23185012"
         id="stop1" /><stop
         style="stop-color:#0060d0;stop-opacity:0;"
         offset="0.86416864"
         id="stop2" /></linearGradient><linearGradient
       inkscape:collect="always"
       xlink:href="#linearGradient1"
       id="linearGradient2"
       x1="-1373.1837"
       y1="285.83295"
       x2="-1020.4104"
       y2="285.83295"
       gradientUnits="userSpaceOnUse"
       gradientTransform="matrix(1,0,0,0.73356442,2.0843804,82.723451)" /></defs><g
     inkscape:label="Layer 1"
     inkscape:groupmode="layer"
     id="layer1"
     transform="translate(1712.0662,-235.34941)"><path
       id="rect2-7-7"
       style="fill:#0bf0ff;fill-opacity:1;stroke:#ffffff;stroke-width:0;stroke-linejoin:round;stroke-dasharray:none;stroke-opacity:1"
       d="m -1448.158,288.61856 h 425.6121 c 6.1067,0 11.0231,1.63807 11.0231,3.67283 v 34.07579 c 0,2.03472 -4.9164,3.67283 -11.0231,3.67283 h -334.9781 c -33.1443,0 -39.4812,-13.6495 -54.503,-22.44512 -8.076,-4.72876 -7.6064,-6.50097 -24.9513,-10.2325 0,0 -12.6241,-0.57132 -22.7256,-0.51774 0,0 0.1867,-6.08649 -0.2459,-8.22903 0,0 0.06,0.003 11.7918,0.003 z"
       sodipodi:nodetypes="sssssssssss"
       inkscape:export-filename="phoneBorder.svg"
       inkscape:export-xdpi="96"
       inkscape:export-ydpi="96" /><rect
       style="fill:#010c2a;stroke:#ffffff;stroke-width:0;stroke-linejoin:round"
       id="rect1"
       width="700.42413"
       height="27.141655"
       x="1011.4397"
       y="261.08911"
       ry="0"
       transform="scale(-1,1)" /><rect
       style="fill:#0bf0ff;fill-opacity:1;stroke:#ffffff;stroke-width:0;stroke-linejoin:round"
       id="rect1-5"
       width="335.93924"
       height="14.53437"
       x="1376.127"
       y="286.15723"
       ry="1.7032599"
       transform="scale(-1,1)" /><path
       id="rect2-0"
       style="fill:#010c2a;fill-opacity:1;stroke:#ffffff;stroke-width:0;stroke-linejoin:round;stroke-dasharray:none;stroke-opacity:1"
       d="m -1411.3186,281.36356 h 389.8396 c 5.5936,0 10.0966,1.56802 10.0966,3.51574 v 32.61845 c 0,1.94775 -4.503,3.51577 -10.0966,3.51577 h -306.8235 c -30.3585,0 -42.7557,-15.26457 -49.922,-21.4852 -5.6787,-4.92942 -9.8731,-10.85035 -44.3127,-17.77412 -4.1219,-0.82869 5.6249,-0.39064 11.2186,-0.39064 z"
       sodipodi:nodetypes="sssssssss"
       inkscape:export-filename="nav.svg"
       inkscape:export-xdpi="96"
       inkscape:export-ydpi="96" /><rect
       style="fill:#010c2a;stroke:#ffffff;stroke-width:0;stroke-linejoin:round"
       id="rect1-2"
       width="700.42413"
       height="27.141655"
       x="-1711.8755"
       y="-262.49106"
       ry="0"
       transform="scale(1,-1)" /><path
       id="rect1-1"
       style="fill:url(#linearGradient2);stroke:#ffffff;stroke-width:0;stroke-linejoin:round"
       d="m -1018.326,275.3623 h -352.7733 l 34.706,34.07607 h 318.0673 z"
       sodipodi:nodetypes="ccccc"
       inkscape:export-filename="gradLine.svg"
       inkscape:export-xdpi="96"
       inkscape:export-ydpi="96" /></g></svg>
