<?xml version="1.0" encoding="UTF-8" standalone="no"?>
<!-- Created with Inkscape (http://www.inkscape.org/) -->

<svg
   width="700.83356mm"
   height="147.9552mm"
   viewBox="0 0 700.83358 147.9552"
   version="1.1"
   id="svg1"
   sodipodi:docname="phoneBorder.svg"
   xml:space="preserve"
   inkscape:version="1.3.2 (091e20e, 2023-11-25, custom)"
   xmlns:inkscape="http://www.inkscape.org/namespaces/inkscape"
   xmlns:sodipodi="http://sodipodi.sourceforge.net/DTD/sodipodi-0.dtd"
   xmlns="http://www.w3.org/2000/svg"
   xmlns:svg="http://www.w3.org/2000/svg"><sodipodi:namedview
     id="namedview1"
     pagecolor="#ffffff"
     bordercolor="#000000"
     borderopacity="0.25"
     inkscape:showpageshadow="2"
     inkscape:pageopacity="0.0"
     inkscape:pagecheckerboard="0"
     inkscape:deskcolor="#d1d1d1"
     inkscape:document-units="mm"
     inkscape:export-bgcolor="#ffffff00"
     inkscape:zoom="0.25387241"
     inkscape:cx="1008.3805"
     inkscape:cy="326.93588"
     inkscape:window-width="1739"
     inkscape:window-height="912"
     inkscape:window-x="26"
     inkscape:window-y="269"
     inkscape:window-maximized="0"
     inkscape:current-layer="layer1" /><defs
     id="defs1" /><g
     inkscape:label="Layer 1"
     inkscape:groupmode="layer"
     id="layer1"
     transform="translate(1712.1105,-182.08481)"><path
       id="rect2-7-7"
       style="fill:#0bf0ff;fill-opacity:1;stroke:#ffffff;stroke-width:0;stroke-linejoin:round;stroke-dasharray:none;stroke-opacity:1"
       d="m -1275.2906,273.57401 h -425.6121 c -6.1067,0 -11.0231,2.23302 -11.0231,5.00682 v 46.45235 c 0,2.77375 4.9164,5.00683 11.0231,5.00683 h 334.9781 c 33.1443,0 39.4812,-18.60709 54.503,-30.59734 8.076,-6.44628 7.6064,-8.86216 24.9513,-13.94902 0,0 12.6241,-0.77882 22.7256,-0.70578 0,0 -0.1867,-8.29714 0.2459,-11.21787 0,0 -0.06,0.004 -11.7918,0.004 z"
       sodipodi:nodetypes="sssssssssss"
       inkscape:export-filename="phoneBorder.svg"
       inkscape:export-xdpi="96"
       inkscape:export-ydpi="96" /><rect
       style="fill:#010c2a;stroke:#ffffff;stroke-width:0;stroke-linejoin:round"
       id="rect1"
       width="700.42413"
       height="36.999687"
       x="-1712.0089"
       y="236.04568"
       ry="0" /><rect
       style="fill:#0bf0ff;fill-opacity:1;stroke:#ffffff;stroke-width:0;stroke-linejoin:round"
       id="rect1-5"
       width="335.93924"
       height="19.813353"
       x="-1347.3217"
       y="270.21869"
       ry="2.3218956" /><path
       id="rect2-0"
       style="fill:#010c2a;fill-opacity:1;stroke:#ffffff;stroke-width:0;stroke-linejoin:round;stroke-dasharray:none;stroke-opacity:1"
       d="m -1312.13,263.68394 h -389.8396 c -5.5936,0 -10.0966,2.13754 -10.0966,4.79269 v 44.46569 c 0,2.65518 4.503,4.79272 10.0966,4.79272 h 306.8235 c 30.3585,0 42.7557,-20.80877 49.922,-29.28877 5.6787,-6.71982 9.8731,-14.79128 44.3127,-24.22981 4.1219,-1.12967 -5.6249,-0.53252 -11.2186,-0.53252 z"
       sodipodi:nodetypes="sssssssss"
       inkscape:export-filename="nav.svg"
       inkscape:export-xdpi="96"
       inkscape:export-ydpi="96" /><rect
       style="fill:#010c2a;stroke:#ffffff;stroke-width:0;stroke-linejoin:round"
       id="rect1-2"
       width="700.42413"
       height="36.999687"
       x="1011.5732"
       y="-237.9568"
       ry="0"
       transform="scale(-1)" /><rect
       style="fill:#0060d0;fill-opacity:1;stroke:#ffffff;stroke-width:0;stroke-linejoin:round"
       id="rect2-3"
       width="238.401"
       height="4.5372305"
       x="-1254.8923"
       y="217.36232" /><rect
       style="fill:#0bf0ff;fill-opacity:1;stroke:#ffffff;stroke-width:0;stroke-linejoin:round"
       id="rect1-5-6"
       width="700.8335"
       height="19.813353"
       x="1011.277"
       y="-201.89816"
       ry="0"
       transform="scale(-1)" /><path
       id="rect1-1"
       style="fill:#0060d0;fill-opacity:1;stroke:#ffffff;stroke-width:0;stroke-linejoin:round"
       d="m -1703.0382,283.45039 h 334.0139 l -32.8605,25.60893 h -301.1534 z"
       sodipodi:nodetypes="ccccc"
       inkscape:export-filename="gradLine.svg"
       inkscape:export-xdpi="96"
       inkscape:export-ydpi="96" /><path
       id="rect1-1-7"
       style="fill:#0060d0;fill-opacity:1;stroke:#ffffff;stroke-width:0;stroke-linejoin:round"
       d="m -1702.013,239.72235 h 328.8498 l -32.3526,-29.60894 h -296.4972 z"
       sodipodi:nodetypes="ccccc"
       inkscape:export-filename="gradLine.svg"
       inkscape:export-xdpi="96"
       inkscape:export-ydpi="96" /><rect
       style="fill:#0060d0;fill-opacity:1;stroke:#ffffff;stroke-width:0;stroke-linejoin:round"
       id="rect2"
       width="388.73694"
       height="4.3529959"
       x="-1701.5817"
       y="248.35883" /><rect
       style="fill:#0060d0;fill-opacity:1;stroke:#ffffff;stroke-width:0;stroke-linejoin:round"
       id="rect2-33"
       width="273.31436"
       height="4.3529959"
       x="-1584.2712"
       y="257.14386" /><rect
       style="fill:#0060d0;fill-opacity:1;stroke:#ffffff;stroke-width:0;stroke-linejoin:round"
       id="rect3"
       width="66.736694"
       height="4.5603738"
       x="-1455.017"
       y="-428.008"
       transform="matrix(0.88569682,-0.46426408,0.05740147,0.99835118,0,0)" /><rect
       style="fill:#0060d0;fill-opacity:1;stroke:#ffffff;stroke-width:0;stroke-linejoin:round"
       id="rect3-9"
       width="68.185028"
       height="4.7272696"
       x="-1460.141"
       y="-431.45587"
       transform="matrix(0.88210084,-0.47106062,0.05634697,0.99841125,0,0)" /><circle
       style="fill:#0060d0;fill-opacity:1;stroke:#ffffff;stroke-width:0;stroke-linejoin:round"
       id="path3"
       cx="-1691.5533"
       cy="268.12265"
       r="10.501391" /><circle
       style="fill:#0060d0;fill-opacity:1;stroke:#ffffff;stroke-width:0;stroke-linejoin:round"
       id="path3-2"
       cx="-1661.8029"
       cy="268.2807"
       r="10.501391" /><circle
       style="fill:#0060d0;fill-opacity:1;stroke:#ffffff;stroke-width:0;stroke-linejoin:round"
       id="path3-2-2"
       cx="-1632.0525"
       cy="268.14352"
       r="10.501391" /><circle
       style="fill:#0060d0;fill-opacity:1;stroke:#ffffff;stroke-width:0;stroke-linejoin:round"
       id="path3-2-2-7"
       cx="-1602.302"
       cy="268.8334"
       r="10.501391" /><rect
       style="fill:#0060d0;fill-opacity:1;stroke:#ffffff;stroke-width:0;stroke-linejoin:round"
       id="rect2-3-5"
       width="236.31664"
       height="4.5372305"
       x="-1252.4513"
       y="225.00996" /></g></svg>
