<?xml version="1.0" encoding="UTF-8" standalone="no"?>
<!-- Created with Inkscape (http://www.inkscape.org/) -->

<svg
   width="2006.1642mm"
   height="118.98656mm"
   viewBox="0 0 2006.1643 118.98656"
   version="1.1"
   id="svg1"
   xml:space="preserve"
   xmlns="http://www.w3.org/2000/svg"
   xmlns:svg="http://www.w3.org/2000/svg"><defs
     id="defs1" /><g
     id="layer1"
     transform="translate(1711.9667,-211.9053)"><path
       id="rect2-7"
       style="fill:#0bf0ff;fill-opacity:1;stroke:#ffffff;stroke-width:0;stroke-linejoin:round;stroke-dasharray:none;stroke-opacity:1"
       d="m -324.08797,260.23134 h 602.66249 c 8.64715,0 15.60854,2.79436 15.60854,6.26544 v 58.12961 c 0,3.47105 -6.96139,6.26547 -15.60854,6.26547 h -474.32573 c -46.93198,0 -55.9049,-23.28456 -77.1755,-38.28897 -11.43559,-8.06674 -10.7707,-11.08992 -35.33093,-17.45554 0,0 -17.87547,-0.97459 -32.17925,-0.88319 0,0 0.26443,-10.38289 -0.3481,-14.03784 0,0 0.085,0.005 16.69702,0.005 z" /><path
       id="rect2-7-7"
       style="fill:#0bf0ff;fill-opacity:1;stroke:#ffffff;stroke-width:0;stroke-linejoin:round;stroke-dasharray:none;stroke-opacity:1"
       d="m -1093.3933,258.86755 h -602.6625 c -8.6471,0 -15.6085,2.79436 -15.6085,6.26544 v 58.12961 c 0,3.47105 6.9614,6.26547 15.6085,6.26547 h 474.3258 c 46.9319,0 55.9049,-23.28456 77.1755,-38.28897 11.4356,-8.06674 10.7707,-11.08992 35.3309,-17.45554 0,0 17.8755,-0.97459 32.1792,-0.88319 0,0 -0.2644,-10.38289 0.3482,-14.03784 0,0 -0.085,0.005 -16.6971,0.005 z" /><rect
       style="fill:#010c2a;stroke:#ffffff;stroke-width:0;stroke-linejoin:round"
       id="rect1"
       width="2006.111"
       height="46.300735"
       x="-1711.9667"
       y="211.9053"
       ry="0" /><rect
       style="fill:#0bf0ff;fill-opacity:1;stroke:#ffffff;stroke-width:0;stroke-linejoin:round"
       id="rect1-5"
       width="989.47186"
       height="24.794071"
       x="-1195.4231"
       y="254.66878"
       ry="2.9055779" /><path
       id="rect2"
       style="fill:#010c2a;fill-opacity:1;stroke:#ffffff;stroke-width:0;stroke-linejoin:round;stroke-dasharray:none;stroke-opacity:1"
       d="m -271.91488,248.15434 h 551.82054 c 7.91766,0 14.29179,2.67488 14.29179,5.99749 v 55.64356 c 0,3.32262 -6.37413,5.99752 -14.29179,5.99752 h -434.31055 c -42.9727,0 -60.52097,-26.03973 -70.6648,-36.65145 -8.03828,-8.40905 -13.97546,-18.50952 -62.72493,-30.32074 -5.83461,-1.41363 7.9621,-0.66638 15.87974,-0.66638 z" /><path
       id="rect2-0"
       style="fill:#010c2a;fill-opacity:1;stroke:#ffffff;stroke-width:0;stroke-linejoin:round;stroke-dasharray:none;stroke-opacity:1"
       d="m -1145.5664,246.49128 h -551.8205 c -7.9177,0 -14.2918,2.67488 -14.2918,5.99749 v 55.64357 c 0,3.32262 6.3741,5.99751 14.2918,5.99751 h 434.3105 c 42.9727,0 60.521,-26.03972 70.6649,-36.65144 8.0382,-8.40905 13.9754,-18.50953 62.7249,-30.32074 5.8346,-1.41364 -7.9621,-0.66639 -15.8798,-0.66639 z" /></g></svg>
